<svg xmlns="http://www.w3.org/2000/svg" width="28" height="28" viewBox="0 0 28 28" fill="none">
<path d="M13.3 11.9H14.7V10.5H13.3V11.9ZM14 19.6C10.913 19.6 8.4 17.087 8.4 14C8.4 10.913 10.913 8.4 14 8.4C17.087 8.4 19.6 10.913 19.6 14C19.6 17.087 17.087 19.6 14 19.6ZM14 7C13.0807 7 12.1705 7.18106 11.3212 7.53284C10.4719 7.88463 9.70026 8.40024 9.05025 9.05025C7.7375 10.363 7 12.1435 7 14C7 15.8565 7.7375 17.637 9.05025 18.9497C9.70026 19.5998 10.4719 20.1154 11.3212 20.4672C12.1705 20.8189 13.0807 21 14 21C15.8565 21 17.637 20.2625 18.9497 18.9497C20.2625 17.637 21 15.8565 21 14C21 13.0807 20.8189 12.1705 20.4672 11.3212C20.1154 10.4719 19.5998 9.70026 18.9497 9.05025C18.2997 8.40024 17.5281 7.88463 16.6788 7.53284C15.8295 7.18106 14.9193 7 14 7ZM13.3 17.5H14.7V13.3H13.3V17.5Z" fill="#78909C"/>
</svg>