<svg xmlns="http://www.w3.org/2000/svg" width="28" height="28" viewBox="0 0 28 28" fill="none">
<path d="M14 9.8V7L10.5 10.5L14 14V11.2C15.1139 11.2 16.1822 11.6425 16.9699 12.4302C17.7575 13.2178 18.2 14.2861 18.2 15.4C18.2 16.5139 17.7575 17.5822 16.9699 18.3698C16.1822 19.1575 15.1139 19.6 14 19.6C12.8861 19.6 11.8178 19.1575 11.0302 18.3698C10.2425 17.5822 9.8 16.5139 9.8 15.4H8.4C8.4 16.8852 8.99 18.3096 10.0402 19.3598C11.0904 20.41 12.5148 21 14 21C15.4852 21 16.9096 20.41 17.9598 19.3598C19.01 18.3096 19.6 16.8852 19.6 15.4C19.6 13.9148 19.01 12.4904 17.9598 11.4402C16.9096 10.39 15.4852 9.8 14 9.8Z" fill="#78909C"/>
</svg>