<svg xmlns="http://www.w3.org/2000/svg" width="28" height="28" viewBox="0 0 28 28" fill="none">
<path d="M19.201 14.686C19.229 14.462 19.25 14.238 19.25 14C19.25 13.762 19.229 13.538 19.201 13.314L20.678 12.159C20.811 12.054 20.846 11.865 20.762 11.711L19.362 9.289C19.278 9.135 19.089 9.079 18.935 9.135L17.192 9.835C16.828 9.555 16.436 9.324 16.009 9.149L15.743 7.294C15.722 7.126 15.575 7 15.4 7H12.6C12.425 7 12.278 7.126 12.257 7.294L11.991 9.149C11.564 9.324 11.172 9.562 10.808 9.835L9.06505 9.135C8.90405 9.072 8.72205 9.135 8.63805 9.289L7.23805 11.711C7.14705 11.865 7.18905 12.054 7.32205 12.159L8.79905 13.314C8.77105 13.538 8.75005 13.769 8.75005 14C8.75005 14.231 8.77105 14.462 8.79905 14.686L7.32205 15.841C7.18905 15.946 7.15405 16.135 7.23805 16.289L8.63805 18.711C8.72205 18.865 8.91105 18.921 9.06505 18.865L10.808 18.165C11.172 18.445 11.564 18.676 11.991 18.851L12.257 20.706C12.278 20.874 12.425 21 12.6 21H15.4C15.575 21 15.722 20.874 15.743 20.706L16.009 18.851C16.436 18.676 16.828 18.438 17.192 18.165L18.935 18.865C19.096 18.928 19.278 18.865 19.362 18.711L20.762 16.289C20.846 16.135 20.811 15.946 20.678 15.841L19.201 14.686ZM14 16.45C12.649 16.45 11.55 15.351 11.55 14C11.55 12.649 12.649 11.55 14 11.55C15.351 11.55 16.45 12.649 16.45 14C16.45 15.351 15.351 16.45 14 16.45Z" fill="#78909C"/>
</svg>